<?xml version="1.0" encoding="utf-8"?>
<!-- Generator: Adobe Illustrator 21.0.0, SVG Export Plug-In . SVG Version: 6.00 Build 0)  -->
<svg version="1.1" id="Layer_1" xmlns="http://www.w3.org/2000/svg" xmlns:xlink="http://www.w3.org/1999/xlink" x="0px" y="0px"
	 viewBox="0 0 250 250" style="enable-background:new 0 0 250 250;" xml:space="preserve">
<style type="text/css">
	.st0{fill:url(#SVGID_1_);}
	.st1{fill:none;stroke:#BA9120;stroke-width:2;stroke-miterlimit:10;}
</style>
<g>
	<radialGradient id="SVGID_1_" cx="125" cy="125" r="124" gradientUnits="userSpaceOnUse">
		<stop  offset="0" style="stop-color:#FFFFFF"/>
		<stop  offset="0.2718" style="stop-color:#FFFFFD"/>
		<stop  offset="0.4094" style="stop-color:#FFFDF5"/>
		<stop  offset="0.517" style="stop-color:#FFFBE8"/>
		<stop  offset="0.6089" style="stop-color:#FFF8D5"/>
		<stop  offset="0.6909" style="stop-color:#FFF4BC"/>
		<stop  offset="0.7658" style="stop-color:#FFEE9E"/>
		<stop  offset="0.8354" style="stop-color:#FFE87A"/>
		<stop  offset="0.9007" style="stop-color:#FFE151"/>
		<stop  offset="0.9603" style="stop-color:#FFD923"/>
		<stop  offset="1" style="stop-color:#FFD300"/>
	</radialGradient>
	<path class="st0" d="M249,229c0,11-9,20-20,20H21c-11,0-20-9-20-20V21C1,10,10,1,21,1h208c11,0,20,9,20,20V229z"/>
	<path class="st1" d="M249,229c0,11-9,20-20,20H21c-11,0-20-9-20-20V21C1,10,10,1,21,1h208c11,0,20,9,20,20V229z"/>
</g>
<g>
	<path d="M146.1,114.6c12.6-8.8,30.7-27.1-8.5-42.6c0,0-3.1-23.5-38.7-14.5c0,0-6.5-12.6-26.6-11.1C52.1,48,43.1,64.5,45.7,73.5
		c0,0-20.1,4.6-18.6,22.7s23,23.5,28.6,23.5h73.8C135.5,119.7,141.2,117.9,146.1,114.6z"/>
	<path d="M85.7,122.6c0,0,8.8,10.8,1.8,18.8c-2.1,2.3-5.4,2.1-6.5-1.3v-0.3c-0.5-1.8-0.3-3.9,0.8-5.4
		C82.8,132.4,84.9,128.5,85.7,122.6z"/>
	<path d="M85.7,171.9c0,0,8.8,10.8,1.8,18.8c-2.1,2.3-5.4,2.1-6.5-1.3v-0.3c-0.5-1.8-0.3-3.9,0.8-5.4
		C82.8,182,84.9,178.1,85.7,171.9z"/>
	<path d="M104.8,141.7c0,0,8.8,10.8,1.8,18.8c-2.1,2.3-5.4,2.1-6.5-1.3V159c-0.5-1.8-0.3-3.9,0.8-5.4
		C101.7,151.5,103.7,147.6,104.8,141.7z"/>
	<path d="M67.1,141.7c0,0,8.8,10.8,1.8,18.8c-2.1,2.3-5.4,2.1-6.5-1.3V159c-0.5-1.8-0.3-3.9,0.8-5.4
		C64.3,151.5,66.1,147.6,67.1,141.7z"/>
	<path d="M42.1,126.2c0,0,8.8,10.8,1.8,18.8c-2.1,2.3-5.4,2.1-6.5-1.3v-0.3c-0.5-1.8-0.3-3.9,0.8-5.4C39.2,136,41,132.1,42.1,126.2z
		"/>
	<polygon points="170.1,142.2 185.6,175.8 166.7,170.1 181.7,201.8 153,161.8 172.4,165.9 160,142.2 	"/>
	<polygon points="126.5,144.5 138.6,170.6 123.9,165.9 135.5,190.7 113,159 128.3,162.9 118.5,144.5 	"/>
	<path d="M224,141.9c1.5-4.4,1.5-10.1-2.1-15.2c-3.1-4.6-8.3-7.5-13.9-7.2c-4.4,0-10.1,0.8-13.2,3.4c0,0,18.8-32.8-12.6-36.7
		c0,0-22.2-2.1-23,18.8c0,0,0.5-28.9-27.4-28.9c-27.6,0-20.4,29.4-20.4,29.4s-31.7-16.8-37.2,14.2c-5.4,31,22.5,32.3,22.5,32.3h113
		C216.3,152,222.2,147.9,224,141.9z"/>
</g>
</svg>
